STARTFONT 2.1
COMMENT Copyright (C) 1990-1991 EWT Consulting
COMMENT Portions Copyright (C) 1994-1995 Cronyx Ltd.
COMMENT Modified by Serge Vakulenko, <vak@cronyx.ru>
COMMENT Encoding changed to CP1251 by Rabinovich Moisei, <moisei@cs.bgu.ac.il>,$
COMMENT This software may be used, modified, copied, distributed, and sold,
COMMENT in both source and binary form provided that the copyright
COMMENT and these terms are retained. Under no circumstances is the author
COMMENT responsible for the proper functioning of this software, nor does
COMMENT the author assume any responsibility for damages incurred with its use.
FONT -Cronyx-Helvetica-Medium-R-Normal--10-100-75-75-P-56-RAWIN-R
SIZE 10 96 96
FONTBOUNDINGBOX 14 16 0 -3
STARTPROPERTIES 19
DEFAULT_CHAR 32
FONT_ASCENT 13
FONT_DESCENT 3
SPACING "P"
FONTNAME_REGISTRY ""
FOUNDRY "Cronyx"
FAMILY_NAME "Helvetica"
WEIGHT_NAME "Medium"
SLANT "R"
SETWIDTH_NAME "Normal"
ADD_STYLE_NAME ""
AVERAGE_WIDTH 56
CHARSET_REGISTRY "RAWIN"
CHARSET_ENCODING "R"
PIXEL_SIZE 10
POINT_SIZE 100
RESOLUTION_X 75
RESOLUTION_Y 75
COPYRIGHT "Copyright (C) 1990, 1991 EWT Consulting, Portions Copyright (C) 1994 Cronyx Ltd."
ENDPROPERTIES
CHARS 224
STARTCHAR space
ENCODING 32
SWIDTH 187 0
DWIDTH 3 0
BBX 3 16 0 -3
BITMAP
00
00
00
00
00
00
00
00
00
00
00
00
00
00
00
00
ENDCHAR
STARTCHAR exclam
ENCODING 33
SWIDTH 187 0
DWIDTH 3 0
BBX 3 16 0 -3
BITMAP
00
00
00
40
40
40
40
40
40
40
40
00
40
00
00
00
ENDCHAR
STARTCHAR quotedbl
ENCODING 34
SWIDTH 312 0
DWIDTH 5 0
BBX 5 16 0 -3
BITMAP
00
00
00
50
50
50
50
00
00
00
00
00
00
00
00
00
ENDCHAR
STARTCHAR numbersign
ENCODING 35
SWIDTH 437 0
DWIDTH 7 0
BBX 7 16 0 -3
BITMAP
00
00
00
14
14
14
7e
28
28
fc
50
50
50
00
00
00
ENDCHAR
STARTCHAR dollar
ENCODING 36
SWIDTH 437 0
DWIDTH 7 0
BBX 7 16 0 -3
BITMAP
00
00
00
10
38
54
54
50
38
14
14
54
38
10
00
00
ENDCHAR
STARTCHAR percent
ENCODING 37
SWIDTH 750 0
DWIDTH 12 0
BBX 12 16 0 -3
BITMAP
0000
0000
0000
3000
4840
4880
3100
0200
0400
08c0
1120
2120
00c0
0000
0000
0000
ENDCHAR
STARTCHAR ampersand
ENCODING 38
SWIDTH 562 0
DWIDTH 9 0
BBX 9 16 0 -3
BITMAP
0000
0000
0000
1800
2400
2400
2400
1800
2800
4400
4500
4200
3d00
0000
0000
0000
ENDCHAR
STARTCHAR quoteright
ENCODING 39
SWIDTH 187 0
DWIDTH 3 0
BBX 3 16 0 -3
BITMAP
00
00
00
40
40
40
40
00
00
00
00
00
00
00
00
00
ENDCHAR
STARTCHAR parenleft
ENCODING 40
SWIDTH 250 0
DWIDTH 4 0
BBX 4 16 0 -3
BITMAP
00
00
00
10
20
20
40
40
40
40
40
40
40
20
20
10
ENDCHAR
STARTCHAR parenright
ENCODING 41
SWIDTH 250 0
DWIDTH 4 0
BBX 4 16 0 -3
BITMAP
00
00
00
80
40
40
20
20
20
20
20
20
20
40
40
80
ENDCHAR
STARTCHAR asterisk
ENCODING 42
SWIDTH 312 0
DWIDTH 5 0
BBX 5 16 0 -3
BITMAP
00
00
00
20
a8
70
d8
00
00
00
00
00
00
00
00
00
ENDCHAR
STARTCHAR plus
ENCODING 43
SWIDTH 437 0
DWIDTH 7 0
BBX 7 16 0 -3
BITMAP
00
00
00
00
00
00
10
10
7c
10
10
00
00
00
00
00
ENDCHAR
STARTCHAR comma
ENCODING 44
SWIDTH 187 0
DWIDTH 3 0
BBX 3 16 0 -3
BITMAP
00
00
00
00
00
00
00
00
00
00
00
00
40
80
00
00
ENDCHAR
STARTCHAR minus
ENCODING 45
SWIDTH 250 0
DWIDTH 4 0
BBX 4 16 0 -3
BITMAP
00
00
00
00
00
00
00
00
f0
00
00
00
00
00
00
00
ENDCHAR
STARTCHAR period
ENCODING 46
SWIDTH 187 0
DWIDTH 3 0
BBX 3 16 0 -3
BITMAP
00
00
00
00
00
00
00
00
00
00
00
00
40
00
00
00
ENDCHAR
STARTCHAR slash
ENCODING 47
SWIDTH 250 0
DWIDTH 4 0
BBX 4 16 0 -3
BITMAP
00
00
00
10
10
10
20
20
20
40
40
40
80
80
80
00
ENDCHAR
STARTCHAR zero
ENCODING 48
SWIDTH 437 0
DWIDTH 7 0
BBX 7 16 0 -3
BITMAP
00
00
00
38
44
44
44
44
44
44
44
44
38
00
00
00
ENDCHAR
STARTCHAR one
ENCODING 49
SWIDTH 437 0
DWIDTH 7 0
BBX 7 16 0 -3
BITMAP
00
00
00
10
70
10
10
10
10
10
10
10
10
00
00
00
ENDCHAR
STARTCHAR two
ENCODING 50
SWIDTH 437 0
DWIDTH 7 0
BBX 7 16 0 -3
BITMAP
00
00
00
38
44
44
04
08
10
20
40
40
7c
00
00
00
ENDCHAR
STARTCHAR three
ENCODING 51
SWIDTH 437 0
DWIDTH 7 0
BBX 7 16 0 -3
BITMAP
00
00
00
38
44
04
04
18
04
04
04
44
38
00
00
00
ENDCHAR
STARTCHAR four
ENCODING 52
SWIDTH 437 0
DWIDTH 7 0
BBX 7 16 0 -3
BITMAP
00
00
00
04
0c
14
14
24
44
7c
04
04
04
00
00
00
ENDCHAR
STARTCHAR five
ENCODING 53
SWIDTH 437 0
DWIDTH 7 0
BBX 7 16 0 -3
BITMAP
00
00
00
7c
40
40
40
78
44
04
04
44
38
00
00
00
ENDCHAR
STARTCHAR six
ENCODING 54
SWIDTH 437 0
DWIDTH 7 0
BBX 7 16 0 -3
BITMAP
00
00
00
38
44
40
40
58
64
44
44
44
38
00
00
00
ENDCHAR
STARTCHAR seven
ENCODING 55
SWIDTH 437 0
DWIDTH 7 0
BBX 7 16 0 -3
BITMAP
00
00
00
7c
04
04
08
08
10
10
20
20
20
00
00
00
ENDCHAR
STARTCHAR eight
ENCODING 56
SWIDTH 437 0
DWIDTH 7 0
BBX 7 16 0 -3
BITMAP
00
00
00
38
44
44
44
38
44
44
44
44
38
00
00
00
ENDCHAR
STARTCHAR nine
ENCODING 57
SWIDTH 437 0
DWIDTH 7 0
BBX 7 16 0 -3
BITMAP
00
00
00
38
44
44
44
4c
34
04
04
44
38
00
00
00
ENDCHAR
STARTCHAR colon
ENCODING 58
SWIDTH 187 0
DWIDTH 3 0
BBX 3 16 0 -3
BITMAP
00
00
00
00
00
00
40
00
00
00
00
00
40
00
00
00
ENDCHAR
STARTCHAR semicolon
ENCODING 59
SWIDTH 187 0
DWIDTH 3 0
BBX 3 16 0 -3
BITMAP
00
00
00
00
00
00
40
00
00
00
00
00
40
80
00
00
ENDCHAR
STARTCHAR less
ENCODING 60
SWIDTH 437 0
DWIDTH 7 0
BBX 7 16 0 -3
BITMAP
00
00
00
00
00
0c
18
30
60
30
18
0c
00
00
00
00
ENDCHAR
STARTCHAR equal
ENCODING 61
SWIDTH 437 0
DWIDTH 7 0
BBX 7 16 0 -3
BITMAP
00
00
00
00
00
00
00
7c
00
7c
00
00
00
00
00
00
ENDCHAR
STARTCHAR greater
ENCODING 62
SWIDTH 437 0
DWIDTH 7 0
BBX 7 16 0 -3
BITMAP
00
00
00
00
00
60
30
18
0c
18
30
60
00
00
00
00
ENDCHAR
STARTCHAR question
ENCODING 63
SWIDTH 437 0
DWIDTH 7 0
BBX 7 16 0 -3
BITMAP
00
00
00
38
44
44
04
08
10
10
10
00
10
00
00
00
ENDCHAR
STARTCHAR at
ENCODING 64
SWIDTH 875 0
DWIDTH 14 0
BBX 14 16 0 -3
BITMAP
0000
0000
0780
1860
2010
2010
43c8
4448
4448
4488
2370
2000
1830
07c0
0000
0000
ENDCHAR
STARTCHAR A
ENCODING 65
SWIDTH 562 0
DWIDTH 9 0
BBX 9 16 0 -3
BITMAP
0000
0000
0000
0800
0800
1400
1400
2200
2200
7f00
4100
8080
8080
0000
0000
0000
ENDCHAR
STARTCHAR B
ENCODING 66
SWIDTH 562 0
DWIDTH 9 0
BBX 9 16 0 -3
BITMAP
0000
0000
0000
7e00
4100
4100
4100
7e00
4100
4100
4100
4100
7e00
0000
0000
0000
ENDCHAR
STARTCHAR C
ENCODING 67
SWIDTH 562 0
DWIDTH 9 0
BBX 9 16 0 -3
BITMAP
0000
0000
0000
1e00
2100
4080
4000
4000
4000
4000
4080
2100
1e00
0000
0000
0000
ENDCHAR
STARTCHAR D
ENCODING 68
SWIDTH 625 0
DWIDTH 10 0
BBX 10 16 0 -3
BITMAP
0000
0000
0000
7e00
4100
4080
4080
4080
4080
4080
4080
4100
7e00
0000
0000
0000
ENDCHAR
STARTCHAR E
ENCODING 69
SWIDTH 562 0
DWIDTH 9 0
BBX 9 16 0 -3
BITMAP
0000
0000
0000
7f00
4000
4000
4000
7e00
4000
4000
4000
4000
7f00
0000
0000
0000
ENDCHAR
STARTCHAR F
ENCODING 70
SWIDTH 500 0
DWIDTH 8 0
BBX 8 16 0 -3
BITMAP
00
00
00
7f
40
40
40
7e
40
40
40
40
40
00
00
00
ENDCHAR
STARTCHAR G
ENCODING 71
SWIDTH 625 0
DWIDTH 10 0
BBX 10 16 0 -3
BITMAP
0000
0000
0000
1e00
2100
4080
4000
4000
4380
4080
4080
2180
1e80
0000
0000
0000
ENDCHAR
STARTCHAR H
ENCODING 72
SWIDTH 625 0
DWIDTH 10 0
BBX 10 16 0 -3
BITMAP
0000
0000
0000
4080
4080
4080
4080
7f80
4080
4080
4080
4080
4080
0000
0000
0000
ENDCHAR
STARTCHAR I
ENCODING 73
SWIDTH 187 0
DWIDTH 3 0
BBX 3 16 0 -3
BITMAP
00
00
00
40
40
40
40
40
40
40
40
40
40
00
00
00
ENDCHAR
STARTCHAR J
ENCODING 74
SWIDTH 437 0
DWIDTH 7 0
BBX 7 16 0 -3
BITMAP
00
00
00
04
04
04
04
04
04
04
44
44
38
00
00
00
ENDCHAR
STARTCHAR K
ENCODING 75
SWIDTH 500 0
DWIDTH 8 0
BBX 8 16 0 -3
BITMAP
00
00
00
42
44
48
50
60
50
48
44
42
41
00
00
00
ENDCHAR
STARTCHAR L
ENCODING 76
SWIDTH 437 0
DWIDTH 7 0
BBX 7 16 0 -3
BITMAP
00
00
00
40
40
40
40
40
40
40
40
40
7e
00
00
00
ENDCHAR
STARTCHAR M
ENCODING 77
SWIDTH 687 0
DWIDTH 11 0
BBX 11 16 0 -3
BITMAP
0000
0000
0000
4040
4040
60c0
60c0
5140
5140
4a40
4a40
4440
4440
0000
0000
0000
ENDCHAR
STARTCHAR N
ENCODING 78
SWIDTH 625 0
DWIDTH 10 0
BBX 10 16 0 -3
BITMAP
0000
0000
0000
4080
6080
5080
5080
4880
4480
4280
4280
4180
4080
0000
0000
0000
ENDCHAR
STARTCHAR O
ENCODING 79
SWIDTH 625 0
DWIDTH 10 0
BBX 10 16 0 -3
BITMAP
0000
0000
0000
1e00
2100
4080
4080
4080
4080
4080
4080
2100
1e00
0000
0000
0000
ENDCHAR
STARTCHAR P
ENCODING 80
SWIDTH 562 0
DWIDTH 9 0
BBX 9 16 0 -3
BITMAP
0000
0000
0000
7e00
4100
4080
4080
4100
7e00
4000
4000
4000
4000
0000
0000
0000
ENDCHAR
STARTCHAR Q
ENCODING 81
SWIDTH 625 0
DWIDTH 10 0
BBX 10 16 0 -3
BITMAP
0000
0000
0000
1e00
2100
4080
4080
4080
4080
4080
4280
2100
1e80
0000
0000
0000
ENDCHAR
STARTCHAR R
ENCODING 82
SWIDTH 625 0
DWIDTH 10 0
BBX 10 16 0 -3
BITMAP
0000
0000
0000
7e00
4100
4080
4080
4100
7f00
4080
4080
4080
4040
0000
0000
0000
ENDCHAR
STARTCHAR S
ENCODING 83
SWIDTH 562 0
DWIDTH 9 0
BBX 9 16 0 -3
BITMAP
0000
0000
0000
3e00
4100
4100
4000
3800
0600
0100
4100
4100
3e00
0000
0000
0000
ENDCHAR
STARTCHAR T
ENCODING 84
SWIDTH 562 0
DWIDTH 9 0
BBX 9 16 0 -3
BITMAP
0000
0000
0000
ff80
0800
0800
0800
0800
0800
0800
0800
0800
0800
0000
0000
0000
ENDCHAR
STARTCHAR U
ENCODING 85
SWIDTH 625 0
DWIDTH 10 0
BBX 10 16 0 -3
BITMAP
0000
0000
0000
4080
4080
4080
4080
4080
4080
4080
4080
2100
1e00
0000
0000
0000
ENDCHAR
STARTCHAR V
ENCODING 86
SWIDTH 562 0
DWIDTH 9 0
BBX 9 16 0 -3
BITMAP
0000
0000
0000
8080
8080
4100
4100
2200
2200
1400
1400
0800
0800
0000
0000
0000
ENDCHAR
STARTCHAR W
ENCODING 87
SWIDTH 812 0
DWIDTH 13 0
BBX 13 16 0 -3
BITMAP
0000
0000
0000
8208
8208
8208
4510
4510
28a0
28a0
28a0
1040
1040
0000
0000
0000
ENDCHAR
STARTCHAR X
ENCODING 88
SWIDTH 500 0
DWIDTH 8 0
BBX 8 16 0 -3
BITMAP
00
00
00
81
81
42
24
18
18
24
42
81
81
00
00
00
ENDCHAR
STARTCHAR Y
ENCODING 89
SWIDTH 562 0
DWIDTH 9 0
BBX 9 16 0 -3
BITMAP
0000
0000
0000
8080
8080
4100
2200
1400
0800
0800
0800
0800
0800
0000
0000
0000
ENDCHAR
STARTCHAR Z
ENCODING 90
SWIDTH 500 0
DWIDTH 8 0
BBX 8 16 0 -3
BITMAP
00
00
00
7e
02
04
04
08
10
20
20
40
7e
00
00
00
ENDCHAR
STARTCHAR bracketleft
ENCODING 91
SWIDTH 250 0
DWIDTH 4 0
BBX 4 16 0 -3
BITMAP
00
00
00
70
40
40
40
40
40
40
40
40
40
40
40
70
ENDCHAR
STARTCHAR backslash
ENCODING 92
SWIDTH 250 0
DWIDTH 4 0
BBX 4 16 0 -3
BITMAP
00
00
00
80
80
80
40
40
40
20
20
20
10
10
10
00
ENDCHAR
STARTCHAR bracketright
ENCODING 93
SWIDTH 250 0
DWIDTH 4 0
BBX 4 16 0 -3
BITMAP
00
00
00
e0
20
20
20
20
20
20
20
20
20
20
20
e0
ENDCHAR
STARTCHAR asciicircum
ENCODING 94
SWIDTH 437 0
DWIDTH 7 0
BBX 7 16 0 -3
BITMAP
00
00
10
28
44
00
00
00
00
00
00
00
00
00
00
00
ENDCHAR
STARTCHAR underscore
ENCODING 95
SWIDTH 437 0
DWIDTH 7 0
BBX 7 16 0 -3
BITMAP
00
00
00
00
00
00
00
00
00
00
00
00
00
00
fe
00
ENDCHAR
STARTCHAR quoteleft
ENCODING 96
SWIDTH 250 0
DWIDTH 4 0
BBX 4 16 0 -3
BITMAP
00
00
00
40
20
00
00
00
00
00
00
00
00
00
00
00
ENDCHAR
STARTCHAR a
ENCODING 97
SWIDTH 500 0
DWIDTH 8 0
BBX 8 16 0 -3
BITMAP
00
00
00
00
00
00
3c
42
3e
42
42
42
3d
00
00
00
ENDCHAR
STARTCHAR b
ENCODING 98
SWIDTH 500 0
DWIDTH 8 0
BBX 8 16 0 -3
BITMAP
00
00
00
40
40
40
5c
62
42
42
42
62
5c
00
00
00
ENDCHAR
STARTCHAR c
ENCODING 99
SWIDTH 437 0
DWIDTH 7 0
BBX 7 16 0 -3
BITMAP
00
00
00
00
00
00
3c
42
40
40
40
42
3c
00
00
00
ENDCHAR
STARTCHAR d
ENCODING 100
SWIDTH 500 0
DWIDTH 8 0
BBX 8 16 0 -3
BITMAP
00
00
00
02
02
02
3a
46
42
42
42
46
3a
00
00
00
ENDCHAR
STARTCHAR e
ENCODING 101
SWIDTH 500 0
DWIDTH 8 0
BBX 8 16 0 -3
BITMAP
00
00
00
00
00
00
3c
42
42
7e
40
42
3c
00
00
00
ENDCHAR
STARTCHAR f
ENCODING 102
SWIDTH 187 0
DWIDTH 3 0
BBX 3 16 0 -3
BITMAP
00
00
00
20
40
40
e0
40
40
40
40
40
40
00
00
00
ENDCHAR
STARTCHAR g
ENCODING 103
SWIDTH 500 0
DWIDTH 8 0
BBX 8 16 0 -3
BITMAP
00
00
00
00
00
00
3a
46
42
42
42
46
3a
02
02
3c
ENDCHAR
STARTCHAR h
ENCODING 104
SWIDTH 437 0
DWIDTH 7 0
BBX 7 16 0 -3
BITMAP
00
00
00
40
40
40
58
64
44
44
44
44
44
00
00
00
ENDCHAR
STARTCHAR i
ENCODING 105
SWIDTH 187 0
DWIDTH 3 0
BBX 3 16 0 -3
BITMAP
00
00
00
40
00
00
40
40
40
40
40
40
40
00
00
00
ENDCHAR
STARTCHAR j
ENCODING 106
SWIDTH 187 0
DWIDTH 3 0
BBX 3 16 0 -3
BITMAP
00
00
00
40
00
00
40
40
40
40
40
40
40
40
40
80
ENDCHAR
STARTCHAR k
ENCODING 107
SWIDTH 437 0
DWIDTH 7 0
BBX 7 16 0 -3
BITMAP
00
00
00
40
40
40
44
48
50
70
48
44
42
00
00
00
ENDCHAR
STARTCHAR l
ENCODING 108
SWIDTH 187 0
DWIDTH 3 0
BBX 3 16 0 -3
BITMAP
00
00
00
40
40
40
40
40
40
40
40
40
40
00
00
00
ENDCHAR
STARTCHAR m
ENCODING 109
SWIDTH 687 0
DWIDTH 11 0
BBX 11 16 0 -3
BITMAP
0000
0000
0000
0000
0000
0000
5980
6640
4440
4440
4440
4440
4440
0000
0000
0000
ENDCHAR
STARTCHAR n
ENCODING 110
SWIDTH 437 0
DWIDTH 7 0
BBX 7 16 0 -3
BITMAP
00
00
00
00
00
00
58
64
44
44
44
44
44
00
00
00
ENDCHAR
STARTCHAR o
ENCODING 111
SWIDTH 500 0
DWIDTH 8 0
BBX 8 16 0 -3
BITMAP
00
00
00
00
00
00
3c
42
42
42
42
42
3c
00
00
00
ENDCHAR
STARTCHAR p
ENCODING 112
SWIDTH 500 0
DWIDTH 8 0
BBX 8 16 0 -3
BITMAP
00
00
00
00
00
00
5c
62
42
42
42
62
5c
40
40
40
ENDCHAR
STARTCHAR q
ENCODING 113
SWIDTH 500 0
DWIDTH 8 0
BBX 8 16 0 -3
BITMAP
00
00
00
00
00
00
3a
46
42
42
42
46
3a
02
02
02
ENDCHAR
STARTCHAR r
ENCODING 114
SWIDTH 250 0
DWIDTH 4 0
BBX 4 16 0 -3
BITMAP
00
00
00
00
00
00
50
60
40
40
40
40
40
00
00
00
ENDCHAR
STARTCHAR s
ENCODING 115
SWIDTH 437 0
DWIDTH 7 0
BBX 7 16 0 -3
BITMAP
00
00
00
00
00
00
38
44
40
38
04
44
38
00
00
00
ENDCHAR
STARTCHAR t
ENCODING 116
SWIDTH 187 0
DWIDTH 3 0
BBX 3 16 0 -3
BITMAP
00
00
00
00
40
40
e0
40
40
40
40
40
20
00
00
00
ENDCHAR
STARTCHAR u
ENCODING 117
SWIDTH 437 0
DWIDTH 7 0
BBX 7 16 0 -3
BITMAP
00
00
00
00
00
00
44
44
44
44
44
4c
34
00
00
00
ENDCHAR
STARTCHAR v
ENCODING 118
SWIDTH 437 0
DWIDTH 7 0
BBX 7 16 0 -3
BITMAP
00
00
00
00
00
00
82
82
44
44
28
28
10
00
00
00
ENDCHAR
STARTCHAR w
ENCODING 119
SWIDTH 562 0
DWIDTH 9 0
BBX 9 16 0 -3
BITMAP
0000
0000
0000
0000
0000
0000
8880
8880
5500
5500
5500
2200
2200
0000
0000
0000
ENDCHAR
STARTCHAR x
ENCODING 120
SWIDTH 375 0
DWIDTH 6 0
BBX 6 16 0 -3
BITMAP
00
00
00
00
00
00
84
48
30
30
30
48
84
00
00
00
ENDCHAR
STARTCHAR y
ENCODING 121
SWIDTH 437 0
DWIDTH 7 0
BBX 7 16 0 -3
BITMAP
00
00
00
00
00
00
82
82
44
44
28
28
10
10
20
c0
ENDCHAR
STARTCHAR z
ENCODING 122
SWIDTH 375 0
DWIDTH 6 0
BBX 6 16 0 -3
BITMAP
00
00
00
00
00
00
78
08
10
20
20
40
78
00
00
00
ENDCHAR
STARTCHAR braceleft
ENCODING 123
SWIDTH 312 0
DWIDTH 5 0
BBX 5 16 0 -3
BITMAP
00
00
00
18
20
20
20
20
20
c0
20
20
20
20
20
18
ENDCHAR
STARTCHAR bar
ENCODING 124
SWIDTH 187 0
DWIDTH 3 0
BBX 3 16 0 -3
BITMAP
00
00
00
40
40
40
40
40
40
40
40
40
40
40
40
40
ENDCHAR
STARTCHAR braceright
ENCODING 125
SWIDTH 312 0
DWIDTH 5 0
BBX 5 16 0 -3
BITMAP
00
00
00
c0
20
20
20
20
20
18
20
20
20
20
20
c0
ENDCHAR
STARTCHAR asciitilde
ENCODING 126
SWIDTH 562 0
DWIDTH 9 0
BBX 9 16 0 -3
BITMAP
0000
0000
0000
3100
4900
4600
0000
0000
0000
0000
0000
0000
0000
0000
0000
0000
ENDCHAR
STARTCHAR C177
ENCODING -1
SWIDTH 250 0
DWIDTH 4 0
BBX 4 16 0 -3
BITMAP
00
00
00
60
60
60
60
60
60
60
60
60
60
00
00
00
ENDCHAR
STARTCHAR C200
ENCODING -1
SWIDTH 250 0
DWIDTH 4 0
BBX 4 16 0 -3
BITMAP
00
00
00
60
60
60
60
60
60
60
60
60
60
00
00
00
ENDCHAR
STARTCHAR C201
ENCODING -1
SWIDTH 250 0
DWIDTH 4 0
BBX 4 16 0 -3
BITMAP
00
00
00
60
60
60
60
60
60
60
60
60
60
00
00
00
ENDCHAR
STARTCHAR C202
ENCODING -1
SWIDTH 250 0
DWIDTH 4 0
BBX 4 16 0 -3
BITMAP
00
00
00
60
60
60
60
60
60
60
60
60
60
00
00
00
ENDCHAR
STARTCHAR C203
ENCODING -1
SWIDTH 250 0
DWIDTH 4 0
BBX 4 16 0 -3
BITMAP
00
00
00
60
60
60
60
60
60
60
60
60
60
00
00
00
ENDCHAR
STARTCHAR C204
ENCODING -1
SWIDTH 250 0
DWIDTH 4 0
BBX 4 16 0 -3
BITMAP
00
00
00
60
60
60
60
60
60
60
60
60
60
00
00
00
ENDCHAR
STARTCHAR C205
ENCODING -1
SWIDTH 250 0
DWIDTH 4 0
BBX 4 16 0 -3
BITMAP
00
00
00
60
60
60
60
60
60
60
60
60
60
00
00
00
ENDCHAR
STARTCHAR C206
ENCODING -1
SWIDTH 250 0
DWIDTH 4 0
BBX 4 16 0 -3
BITMAP
00
00
00
60
60
60
60
60
60
60
60
60
60
00
00
00
ENDCHAR
STARTCHAR C207
ENCODING -1
SWIDTH 250 0
DWIDTH 4 0
BBX 4 16 0 -3
BITMAP
00
00
00
60
60
60
60
60
60
60
60
60
60
00
00
00
ENDCHAR
STARTCHAR C210
ENCODING -1
SWIDTH 250 0
DWIDTH 4 0
BBX 4 16 0 -3
BITMAP
00
00
00
60
60
60
60
60
60
60
60
60
60
00
00
00
ENDCHAR
STARTCHAR C211
ENCODING -1
SWIDTH 250 0
DWIDTH 4 0
BBX 4 16 0 -3
BITMAP
00
00
00
60
60
60
60
60
60
60
60
60
60
00
00
00
ENDCHAR
STARTCHAR C212
ENCODING -1
SWIDTH 250 0
DWIDTH 4 0
BBX 4 16 0 -3
BITMAP
00
00
00
60
60
60
60
60
60
60
60
60
60
00
00
00
ENDCHAR
STARTCHAR C213
ENCODING -1
SWIDTH 250 0
DWIDTH 4 0
BBX 4 16 0 -3
BITMAP
00
00
00
60
60
60
60
60
60
60
60
60
60
00
00
00
ENDCHAR
STARTCHAR C214
ENCODING -1
SWIDTH 250 0
DWIDTH 4 0
BBX 4 16 0 -3
BITMAP
00
00
00
60
60
60
60
60
60
60
60
60
60
00
00
00
ENDCHAR
STARTCHAR C215
ENCODING -1
SWIDTH 250 0
DWIDTH 4 0
BBX 4 16 0 -3
BITMAP
00
00
00
60
60
60
60
60
60
60
60
60
60
00
00
00
ENDCHAR
STARTCHAR C216
ENCODING -1
SWIDTH 250 0
DWIDTH 4 0
BBX 4 16 0 -3
BITMAP
00
00
00
60
60
60
60
60
60
60
60
60
60
00
00
00
ENDCHAR
STARTCHAR C217
ENCODING -1
SWIDTH 250 0
DWIDTH 4 0
BBX 4 16 0 -3
BITMAP
00
00
00
60
60
60
60
60
60
60
60
60
60
00
00
00
ENDCHAR
STARTCHAR C220
ENCODING -1
SWIDTH 250 0
DWIDTH 4 0
BBX 4 16 0 -3
BITMAP
00
00
00
60
60
60
60
60
60
60
60
60
60
00
00
00
ENDCHAR
STARTCHAR C221
ENCODING -1
SWIDTH 187 0
DWIDTH 3 0
BBX 3 16 0 -3
BITMAP
00
00
00
20
40
00
00
00
00
00
00
00
00
00
00
00
ENDCHAR
STARTCHAR C222
ENCODING -1
SWIDTH 187 0
DWIDTH 3 0
BBX 3 16 0 -3
BITMAP
00
00
00
40
80
00
00
00
00
00
00
00
00
00
00
00
ENDCHAR
STARTCHAR C223
ENCODING -1
SWIDTH 250 0
DWIDTH 4 0
BBX 4 16 0 -3
BITMAP
00
00
00
60
60
60
60
60
60
60
60
60
60
00
00
00
ENDCHAR
STARTCHAR C224
ENCODING -1
SWIDTH 250 0
DWIDTH 4 0
BBX 4 16 0 -3
BITMAP
00
00
00
60
60
60
60
60
60
60
60
60
60
00
00
00
ENDCHAR
STARTCHAR C225
ENCODING -1
SWIDTH 250 0
DWIDTH 4 0
BBX 4 16 0 -3
BITMAP
00
00
00
60
60
60
60
60
60
60
60
60
60
00
00
00
ENDCHAR
STARTCHAR C226
ENCODING -1
SWIDTH 250 0
DWIDTH 4 0
BBX 4 16 0 -3
BITMAP
00
00
00
60
60
60
60
60
60
60
60
60
60
00
00
00
ENDCHAR
STARTCHAR C227
ENCODING -1
SWIDTH 250 0
DWIDTH 4 0
BBX 4 16 0 -3
BITMAP
00
00
00
60
60
60
60
60
60
60
60
60
60
00
00
00
ENDCHAR
STARTCHAR C230
ENCODING -1
SWIDTH 250 0
DWIDTH 4 0
BBX 4 16 0 -3
BITMAP
00
00
00
60
60
60
60
60
60
60
60
60
60
00
00
00
ENDCHAR
STARTCHAR C231
ENCODING -1
SWIDTH 250 0
DWIDTH 4 0
BBX 4 16 0 -3
BITMAP
00
00
00
60
60
60
60
60
60
60
60
60
60
00
00
00
ENDCHAR
STARTCHAR C232
ENCODING -1
SWIDTH 250 0
DWIDTH 4 0
BBX 4 16 0 -3
BITMAP
00
00
00
60
60
60
60
60
60
60
60
60
60
00
00
00
ENDCHAR
STARTCHAR C233
ENCODING -1
SWIDTH 250 0
DWIDTH 4 0
BBX 4 16 0 -3
BITMAP
00
00
00
60
60
60
60
60
60
60
60
60
60
00
00
00
ENDCHAR
STARTCHAR C234
ENCODING -1
SWIDTH 250 0
DWIDTH 4 0
BBX 4 16 0 -3
BITMAP
00
00
00
60
60
60
60
60
60
60
60
60
60
00
00
00
ENDCHAR
STARTCHAR C235
ENCODING -1
SWIDTH 250 0
DWIDTH 4 0
BBX 4 16 0 -3
BITMAP
00
00
00
60
60
60
60
60
60
60
60
60
60
00
00
00
ENDCHAR
STARTCHAR C236
ENCODING -1
SWIDTH 250 0
DWIDTH 4 0
BBX 4 16 0 -3
BITMAP
00
00
00
60
60
60
60
60
60
60
60
60
60
00
00
00
ENDCHAR
STARTCHAR C237
ENCODING -1
SWIDTH 250 0
DWIDTH 4 0
BBX 4 16 0 -3
BITMAP
00
00
00
60
60
60
60
60
60
60
60
60
60
00
00
00
ENDCHAR
STARTCHAR C240
ENCODING 160
SWIDTH 187 0
DWIDTH 3 0
BBX 3 16 0 -3
BITMAP
00
00
00
00
00
00
00
00
00
00
00
00
00
00
00
00
ENDCHAR
STARTCHAR exclamdown
ENCODING 161
SWIDTH 187 0
DWIDTH 3 0
BBX 3 16 0 -3
BITMAP
00
00
00
00
00
00
40
00
40
40
40
40
40
40
40
40
ENDCHAR
STARTCHAR cent
ENCODING 162
SWIDTH 437 0
DWIDTH 7 0
BBX 7 16 0 -3
BITMAP
00
00
00
00
00
04
38
4c
48
50
50
64
38
40
00
00
ENDCHAR
STARTCHAR sterling
ENCODING 184
SWIDTH 437 0
DWIDTH 7 0
BBX 7 16 0 -3
BITMAP
00
00
00
30
48
40
40
20
78
20
20
40
7c
00
00
00
ENDCHAR
STARTCHAR currency
ENCODING 164
SWIDTH 437 0
DWIDTH 7 0
BBX 7 16 0 -3
BITMAP
00
00
00
44
38
28
38
44
00
00
00
00
00
00
00
00
ENDCHAR
STARTCHAR yen
ENCODING 165
SWIDTH 437 0
DWIDTH 7 0
BBX 7 16 0 -3
BITMAP
00
00
00
82
82
44
28
fe
10
fe
10
10
10
00
00
00
ENDCHAR
STARTCHAR brokenbar
ENCODING 166
SWIDTH 187 0
DWIDTH 3 0
BBX 3 16 0 -3
BITMAP
00
00
00
40
40
40
40
40
40
00
40
40
40
40
40
40
ENDCHAR
STARTCHAR section
ENCODING 167
SWIDTH 437 0
DWIDTH 7 0
BBX 7 16 0 -3
BITMAP
00
00
00
38
44
20
30
48
24
18
08
44
38
00
00
00
ENDCHAR
STARTCHAR dieresis
ENCODING 168
SWIDTH 250 0
DWIDTH 4 0
BBX 4 16 0 -3
BITMAP
00
00
00
90
00
00
00
00
00
00
00
00
00
00
00
00
ENDCHAR
STARTCHAR copyright
ENCODING 169
SWIDTH 500 0
DWIDTH 8 0
BBX 8 16 0 -3
BITMAP
00
00
00
3c
42
9d
a1
a1
9d
42
3c
00
00
00
00
00
ENDCHAR
STARTCHAR ordfeminine
ENCODING 170
SWIDTH 312 0
DWIDTH 5 0
BBX 5 16 0 -3
BITMAP
00
00
00
20
10
30
50
30
00
70
00
00
00
00
00
00
ENDCHAR
STARTCHAR guillemotleft
ENCODING 171
SWIDTH 437 0
DWIDTH 7 0
BBX 7 16 0 -3
BITMAP
00
00
00
00
00
00
00
14
28
50
28
14
00
00
00
00
ENDCHAR
STARTCHAR logicalnot
ENCODING 172
SWIDTH 437 0
DWIDTH 7 0
BBX 7 16 0 -3
BITMAP
00
00
00
00
00
00
00
7c
04
00
00
00
00
00
00
00
ENDCHAR
STARTCHAR hyphen
ENCODING 173
SWIDTH 250 0
DWIDTH 4 0
BBX 4 16 0 -3
BITMAP
00
00
00
00
00
00
00
00
f0
00
00
00
00
00
00
00
ENDCHAR
STARTCHAR registered
ENCODING 174
SWIDTH 500 0
DWIDTH 8 0
BBX 8 16 0 -3
BITMAP
00
00
00
3c
42
b9
a5
b9
a5
42
3c
00
00
00
00
00
ENDCHAR
STARTCHAR macron
ENCODING 175
SWIDTH 437 0
DWIDTH 7 0
BBX 7 16 0 -3
BITMAP
00
fe
00
00
00
00
00
00
00
00
00
00
00
00
00
00
ENDCHAR
STARTCHAR degree
ENCODING 176
SWIDTH 250 0
DWIDTH 4 0
BBX 4 16 0 -3
BITMAP
00
00
00
20
50
20
00
00
00
00
00
00
00
00
00
00
ENDCHAR
STARTCHAR plusminus
ENCODING 177
SWIDTH 437 0
DWIDTH 7 0
BBX 7 16 0 -3
BITMAP
00
00
00
00
00
00
10
10
7c
10
10
00
7c
00
00
00
ENDCHAR
STARTCHAR twosuperior
ENCODING 178
SWIDTH 250 0
DWIDTH 4 0
BBX 4 16 0 -3
BITMAP
00
00
00
60
90
20
40
f0
00
00
00
00
00
00
00
00
ENDCHAR
STARTCHAR threesuperior
ENCODING 168
SWIDTH 250 0
DWIDTH 4 0
BBX 4 16 0 -3
BITMAP
00
00
00
60
90
20
90
60
00
00
00
00
00
00
00
00
ENDCHAR
STARTCHAR acute
ENCODING 180
SWIDTH 250 0
DWIDTH 4 0
BBX 4 16 0 -3
BITMAP
00
00
00
20
40
00
00
00
00
00
00
00
00
00
00
00
ENDCHAR
STARTCHAR mu
ENCODING 181
SWIDTH 437 0
DWIDTH 7 0
BBX 7 16 0 -3
BITMAP
00
00
00
00
00
44
44
44
44
44
44
44
7a
40
40
40
ENDCHAR
STARTCHAR paragraph
ENCODING 182
SWIDTH 437 0
DWIDTH 7 0
BBX 7 16 0 -3
BITMAP
00
00
00
3c
74
74
74
74
34
14
14
14
14
00
00
00
ENDCHAR
STARTCHAR periodcentered
ENCODING 183
SWIDTH 187 0
DWIDTH 3 0
BBX 3 16 0 -3
BITMAP
00
00
00
00
00
00
00
40
00
00
00
00
00
00
00
00
ENDCHAR
STARTCHAR cedilla
ENCODING 184
SWIDTH 250 0
DWIDTH 4 0
BBX 4 16 0 -3
BITMAP
00
00
00
00
00
00
00
00
00
00
00
00
00
20
10
60
ENDCHAR
STARTCHAR onesuperior
ENCODING 185
SWIDTH 250 0
DWIDTH 4 0
BBX 4 16 0 -3
BITMAP
00
00
00
20
60
20
20
20
00
00
00
00
00
00
00
00
ENDCHAR
STARTCHAR ordmasculine
ENCODING 186
SWIDTH 312 0
DWIDTH 5 0
BBX 5 16 0 -3
BITMAP
00
00
00
20
50
50
50
20
00
70
00
00
00
00
00
00
ENDCHAR
STARTCHAR guillemotright
ENCODING 187
SWIDTH 437 0
DWIDTH 7 0
BBX 7 16 0 -3
BITMAP
00
00
00
00
00
00
00
50
28
14
28
50
00
00
00
00
ENDCHAR
STARTCHAR onequarter
ENCODING 188
SWIDTH 562 0
DWIDTH 9 0
BBX 9 16 0 -3
BITMAP
0000
0000
0000
4200
c200
4400
4400
4800
0880
1180
1280
2780
2080
0000
0000
0000
ENDCHAR
STARTCHAR onehalf
ENCODING 189
SWIDTH 562 0
DWIDTH 9 0
BBX 9 16 0 -3
BITMAP
0000
0000
0000
4200
c200
4400
4400
4800
0b00
1480
1100
2200
2780
0000
0000
0000
ENDCHAR
STARTCHAR threequarters
ENCODING 190
SWIDTH 562 0
DWIDTH 9 0
BBX 9 16 0 -3
BITMAP
0000
0000
0000
6200
9200
2400
9400
6800
0880
1180
1280
2780
2080
0000
0000
0000
ENDCHAR
STARTCHAR questiondown
ENCODING 191
SWIDTH 437 0
DWIDTH 7 0
BBX 7 16 0 -3
BITMAP
00
00
00
00
00
00
10
00
10
10
10
20
40
44
44
38
ENDCHAR
STARTCHAR cyr-A
ENCODING 192
SWIDTH 562 0
DWIDTH 9 0
BBX 9 16 0 -3
BITMAP
0000
0000
0000
0800
0800
1400
1400
2200
2200
7f00
4100
8080
8080
0000
0000
0000
ENDCHAR
STARTCHAR cyr-Be
ENCODING 193
SWIDTH 562 0
DWIDTH 9 0
BBX 9 16 0 -3
BITMAP
0000
0000
0000
7e00
4000
4000
4000
7e00
4100
4100
4100
4100
7e00
0000
0000
0000
ENDCHAR
STARTCHAR cyr-Ve
ENCODING 194
SWIDTH 562 0
DWIDTH 9 0
BBX 9 16 0 -3
BITMAP
0000
0000
0000
7e00
4100
4100
4100
7e00
4100
4100
4100
4100
7e00
0000
0000
0000
ENDCHAR
STARTCHAR cyr-Ghe
ENCODING 195
SWIDTH 500 0
DWIDTH 8 0
BBX 8 16 0 -3
BITMAP
00
00
00
7e
40
40
40
40
40
40
40
40
40
00
00
00
ENDCHAR
STARTCHAR cyr-De
ENCODING 196
SWIDTH 625 0
DWIDTH 10 0
BBX 10 16 0 -3
BITMAP
0000
0000
0000
1f00
1100
1100
1100
1100
1100
1100
1100
2100
7f80
4080
4080
0000
ENDCHAR
STARTCHAR cyr-Ie
ENCODING 197
SWIDTH 562 0
DWIDTH 9 0
BBX 9 16 0 -3
BITMAP
0000
0000
0000
7f00
4000
4000
4000
7e00
4000
4000
4000
4000
7f00
0000
0000
0000
ENDCHAR
STARTCHAR cyr-Zhe
ENCODING 198
SWIDTH 812 0
DWIDTH 13 0
BBX 13 16 0 -3
BITMAP
0000
0000
0000
4210
2220
1240
0a80
0700
0a80
1240
2220
4210
8208
0000
0000
0000
ENDCHAR
STARTCHAR cyr-Ze
ENCODING 199
SWIDTH 562 0
DWIDTH 9 0
BBX 9 16 0 -3
BITMAP
0000
0000
0000
3e00
4100
0100
0100
0e00
0100
0100
0100
4100
3e00
0000
0000
0000
ENDCHAR
STARTCHAR cyr-I
ENCODING 200
SWIDTH 625 0
DWIDTH 10 0
BBX 10 16 0 -3
BITMAP
0000
0000
0000
4080
4080
4080
4180
4280
4480
4880
5080
6080
4080
0000
0000
0000
ENDCHAR
STARTCHAR cyr-I-short
ENCODING 201
SWIDTH 625 0
DWIDTH 10 0
BBX 10 16 0 -3
BITMAP
0000
1200
0c00
4080
4080
4080
4180
4280
4480
4880
5080
6080
4080
0000
0000
0000
ENDCHAR
STARTCHAR cyr-Ka
ENCODING 202
SWIDTH 500 0
DWIDTH 8 0
BBX 8 16 0 -3
BITMAP
00
00
00
42
44
48
50
60
50
48
44
42
41
00
00
00
ENDCHAR
STARTCHAR cyr-El
ENCODING 203
SWIDTH 750 0
DWIDTH 12 0
BBX 12 16 0 -3
BITMAP
0000
0000
0000
1fe0
1020
1020
1020
1020
1020
1020
1020
1020
6020
0000
0000
0000
ENDCHAR
STARTCHAR cyr-Em
ENCODING 204
SWIDTH 687 0
DWIDTH 11 0
BBX 11 16 0 -3
BITMAP
0000
0000
0000
4040
4040
60c0
60c0
5140
5140
4a40
4a40
4440
4440
0000
0000
0000
ENDCHAR
STARTCHAR cyr-En
ENCODING 205
SWIDTH 625 0
DWIDTH 10 0
BBX 10 16 0 -3
BITMAP
0000
0000
0000
4080
4080
4080
4080
7f80
4080
4080
4080
4080
4080
0000
0000
0000
ENDCHAR
STARTCHAR cyr-O
ENCODING 206
SWIDTH 625 0
DWIDTH 10 0
BBX 10 16 0 -3
BITMAP
0000
0000
0000
1e00
2100
4080
4080
4080
4080
4080
4080
2100
1e00
0000
0000
0000
ENDCHAR
STARTCHAR cyr-Pe
ENCODING 207
SWIDTH 625 0
DWIDTH 10 0
BBX 10 16 0 -3
BITMAP
0000
0000
0000
7f80
4080
4080
4080
4080
4080
4080
4080
4080
4080
0000
0000
0000
ENDCHAR
STARTCHAR cyr-Er
ENCODING 208
SWIDTH 562 0
DWIDTH 9 0
BBX 9 16 0 -3
BITMAP
0000
0000
0000
7e00
4100
4080
4080
4100
7e00
4000
4000
4000
4000
0000
0000
0000
ENDCHAR
STARTCHAR cyr-Es
ENCODING 209
SWIDTH 562 0
DWIDTH 9 0
BBX 9 16 0 -3
BITMAP
0000
0000
0000
1e00
2100
4080
4000
4000
4000
4000
4080
2100
1e00
0000
0000
0000
ENDCHAR
STARTCHAR cyr-Te
ENCODING 210
SWIDTH 562 0
DWIDTH 9 0
BBX 9 16 0 -3
BITMAP
0000
0000
0000
ff80
0800
0800
0800
0800
0800
0800
0800
0800
0800
0000
0000
0000
ENDCHAR
STARTCHAR cyr-U
ENCODING 211
SWIDTH 562 0
DWIDTH 9 0
BBX 9 16 0 -3
BITMAP
0000
0000
0000
8080
8080
4100
2200
1400
0800
0800
1000
2000
c000
0000
0000
0000
ENDCHAR
STARTCHAR cyr-Ef
ENCODING 212
SWIDTH 625 0
DWIDTH 10 0
BBX 10 16 0 -3
BITMAP
0000
0000
0000
1f00
2480
4440
4440
4440
4440
4440
2480
1f00
0400
0000
0000
0000
ENDCHAR
STARTCHAR cyr-Kha
ENCODING 213
SWIDTH 500 0
DWIDTH 8 0
BBX 8 16 0 -3
BITMAP
00
00
00
81
81
42
24
18
18
24
42
81
81
00
00
00
ENDCHAR
STARTCHAR cyr-Tse
ENCODING 214
SWIDTH 625 0
DWIDTH 10 0
BBX 10 16 0 -3
BITMAP
0000
0000
0000
4080
4080
4080
4080
4080
4080
4080
4080
4080
7fc0
0040
0040
0000
ENDCHAR
STARTCHAR cyr-Che
ENCODING 215
SWIDTH 625 0
DWIDTH 10 0
BBX 10 16 0 -3
BITMAP
0000
0000
0000
4080
4080
4080
4080
3f80
0080
0080
0080
0080
0080
0000
0000
0000
ENDCHAR
STARTCHAR cyr-Sha
ENCODING 216
SWIDTH 812 0
DWIDTH 13 0
BBX 13 16 0 -3
BITMAP
0000
0000
0000
4210
4210
4210
4210
4210
4210
4210
4210
4210
7ff0
0000
0000
0000
ENDCHAR
STARTCHAR cyr-Shcha
ENCODING 217
SWIDTH 812 0
DWIDTH 13 0
BBX 13 16 0 -3
BITMAP
0000
0000
0000
4210
4210
4210
4210
4210
4210
4210
4210
4210
7ff8
0008
0008
0000
ENDCHAR
STARTCHAR cyr-Ier
ENCODING 218
SWIDTH 687 0
DWIDTH 11 0
BBX 11 16 0 -3
BITMAP
0000
0000
0000
e000
2000
2000
2000
3f80
2040
2040
2040
2040
3f80
0000
0000
0000
ENDCHAR
STARTCHAR cyr-Iery
ENCODING 219
SWIDTH 750 0
DWIDTH 12 0
BBX 12 16 0 -3
BITMAP
0000
0000
0000
4020
4020
4020
4020
7f20
40a0
40a0
40a0
40a0
7f20
0000
0000
0000
ENDCHAR
STARTCHAR cyr-Ierik
ENCODING 220
SWIDTH 625 0
DWIDTH 10 0
BBX 10 16 0 -3
BITMAP
0000
0000
0000
4000
4000
4000
4000
7f00
4080
4080
4080
4080
7f00
0000
0000
0000
ENDCHAR
STARTCHAR cyr-E-rev
ENCODING 221
SWIDTH 625 0
DWIDTH 10 0
BBX 10 16 0 -3
BITMAP
0000
0000
0000
1e00
2100
4080
0080
0f80
0080
0080
4080
2100
1e00
0000
0000
0000
ENDCHAR
STARTCHAR cyr-Yu
ENCODING 222
SWIDTH 687 0
DWIDTH 11 0
BBX 11 16 0 -3
BITMAP
0000
0000
0000
4700
4880
5040
5040
7040
5040
5040
5040
4880
4700
0000
0000
0000
ENDCHAR
STARTCHAR cyr-Ya
ENCODING 223
SWIDTH 625 0
DWIDTH 10 0
BBX 10 16 0 -3
BITMAP
0000
0000
0000
3f80
4080
4080
4080
4080
3f80
0880
1080
2080
4080
0000
0000
0000
ENDCHAR
STARTCHAR cyr-a
ENCODING 224
SWIDTH 500 0
DWIDTH 8 0
BBX 8 16 0 -3
BITMAP
00
00
00
00
00
00
3c
42
3e
42
42
42
3d
00
00
00
ENDCHAR
STARTCHAR cyr-be
ENCODING 225
SWIDTH 500 0
DWIDTH 8 0
BBX 8 16 0 -3
BITMAP
00
00
00
02
3c
40
7c
42
42
42
42
42
3c
00
00
00
ENDCHAR
STARTCHAR cyr-ve
ENCODING 226
SWIDTH 500 0
DWIDTH 8 0
BBX 8 16 0 -3
BITMAP
00
00
00
00
00
00
7c
42
42
7e
42
42
7c
00
00
00
ENDCHAR
STARTCHAR cyr-ghe
ENCODING 227
SWIDTH 437 0
DWIDTH 7 0
BBX 7 16 0 -3
BITMAP
00
00
00
00
00
00
7c
40
40
40
40
40
40
00
00
00
ENDCHAR
STARTCHAR cyr-de
ENCODING 228
SWIDTH 625 0
DWIDTH 10 0
BBX 10 16 0 -3
BITMAP
0000
0000
0000
0000
0000
0000
1f00
1100
1100
1100
1100
2100
7f80
4080
4080
0000
ENDCHAR
STARTCHAR cyr-ie
ENCODING 229
SWIDTH 500 0
DWIDTH 8 0
BBX 8 16 0 -3
BITMAP
00
00
00
00
00
00
3c
42
42
7e
40
42
3c
00
00
00
ENDCHAR
STARTCHAR cyr-zhe
ENCODING 230
SWIDTH 687 0
DWIDTH 11 0
BBX 11 16 0 -3
BITMAP
0000
0000
0000
0000
0000
0000
4440
2480
1500
1f00
2480
4440
8420
0000
0000
0000
ENDCHAR
STARTCHAR cyr-z
ENCODING 231
SWIDTH 500 0
DWIDTH 8 0
BBX 8 16 0 -3
BITMAP
00
00
00
00
00
00
3c
42
02
1c
02
42
3c
00
00
00
ENDCHAR
STARTCHAR cyr-i
ENCODING 232
SWIDTH 500 0
DWIDTH 8 0
BBX 8 16 0 -3
BITMAP
00
00
00
00
00
00
42
42
46
4a
52
62
42
00
00
00
ENDCHAR
STARTCHAR cyr-i-short
ENCODING 233
SWIDTH 500 0
DWIDTH 8 0
BBX 8 16 0 -3
BITMAP
00
00
00
00
24
18
42
42
46
4a
52
62
42
00
00
00
ENDCHAR
STARTCHAR cyr-ka
ENCODING 234
SWIDTH 437 0
DWIDTH 7 0
BBX 7 16 0 -3
BITMAP
00
00
00
00
00
00
44
48
50
70
48
44
42
00
00
00
ENDCHAR
STARTCHAR cyr-el
ENCODING 235
SWIDTH 500 0
DWIDTH 8 0
BBX 8 16 0 -3
BITMAP
00
00
00
00
00
00
3e
22
22
22
22
22
42
00
00
00
ENDCHAR
STARTCHAR cyr-em
ENCODING 236
SWIDTH 562 0
DWIDTH 9 0
BBX 9 16 0 -3
BITMAP
0000
0000
0000
0000
0000
0000
4100
6300
5500
4900
4100
4100
4100
0000
0000
0000
ENDCHAR
STARTCHAR cyr-en
ENCODING 237
SWIDTH 437 0
DWIDTH 7 0
BBX 7 16 0 -3
BITMAP
00
00
00
00
00
00
44
44
44
7c
44
44
44
00
00
00
ENDCHAR
STARTCHAR cyr-o
ENCODING 238
SWIDTH 500 0
DWIDTH 8 0
BBX 8 16 0 -3
BITMAP
00
00
00
00
00
00
3c
42
42
42
42
42
3c
00
00
00
ENDCHAR
STARTCHAR cyr-pe
ENCODING 239
SWIDTH 437 0
DWIDTH 7 0
BBX 7 16 0 -3
BITMAP
00
00
00
00
00
00
7c
44
44
44
44
44
44
00
00
00
ENDCHAR
STARTCHAR cyr-er
ENCODING 240
SWIDTH 500 0
DWIDTH 8 0
BBX 8 16 0 -3
BITMAP
00
00
00
00
00
00
5c
62
42
42
42
62
5c
40
40
40
ENDCHAR
STARTCHAR cyr-es
ENCODING 241
SWIDTH 437 0
DWIDTH 7 0
BBX 7 16 0 -3
BITMAP
00
00
00
00
00
00
3c
42
40
40
40
42
3c
00
00
00
ENDCHAR
STARTCHAR cyr-te
ENCODING 242
SWIDTH 562 0
DWIDTH 9 0
BBX 9 16 0 -3
BITMAP
0000
0000
0000
0000
0000
0000
7f00
0800
0800
0800
0800
0800
0800
0000
0000
0000
ENDCHAR
STARTCHAR cyr-u
ENCODING 243
SWIDTH 437 0
DWIDTH 7 0
BBX 7 16 0 -3
BITMAP
00
00
00
00
00
00
82
82
44
44
28
28
10
10
20
c0
ENDCHAR
STARTCHAR cyr-ef
ENCODING 244
SWIDTH 562 0
DWIDTH 9 0
BBX 9 16 0 -3
BITMAP
0000
0000
0000
0000
0000
0800
3e00
4900
4900
4900
4900
4900
3e00
0800
0800
0800
ENDCHAR
STARTCHAR cyr-kha
ENCODING 245
SWIDTH 375 0
DWIDTH 6 0
BBX 6 16 0 -3
BITMAP
00
00
00
00
00
00
84
48
30
30
30
48
84
00
00
00
ENDCHAR
STARTCHAR cyr-tse
ENCODING 246
SWIDTH 437 0
DWIDTH 7 0
BBX 7 16 0 -3
BITMAP
00
00
00
00
00
00
44
44
44
44
44
44
7e
02
02
00
ENDCHAR
STARTCHAR cyr-che
ENCODING 247
SWIDTH 437 0
DWIDTH 7 0
BBX 7 16 0 -3
BITMAP
00
00
00
00
00
00
44
44
44
3c
04
04
04
00
00
00
ENDCHAR
STARTCHAR cyr-sha
ENCODING 248
SWIDTH 687 0
DWIDTH 11 0
BBX 11 16 0 -3
BITMAP
0000
0000
0000
0000
0000
0000
4440
4440
4440
4440
4440
4440
7fc0
0000
0000
0000
ENDCHAR
STARTCHAR cyr-shcha
ENCODING 249
SWIDTH 687 0
DWIDTH 11 0
BBX 11 16 0 -3
BITMAP
0000
0000
0000
0000
0000
0000
4440
4440
4440
4440
4440
4440
7fe0
0020
0020
0000
ENDCHAR
STARTCHAR cyr-ier
ENCODING 250
SWIDTH 562 0
DWIDTH 9 0
BBX 9 16 0 -3
BITMAP
0000
0000
0000
0000
0000
0000
e000
2000
3e00
2100
2100
2100
3e00
0000
0000
0000
ENDCHAR
STARTCHAR cyr-iery
ENCODING 251
SWIDTH 625 0
DWIDTH 10 0
BBX 10 16 0 -3
BITMAP
0000
0000
0000
0000
0000
0000
4080
4080
7c80
4280
4280
4280
7c80
0000
0000
0000
ENDCHAR
STARTCHAR cyr-ierik
ENCODING 252
SWIDTH 500 0
DWIDTH 8 0
BBX 8 16 0 -3
BITMAP
00
00
00
00
00
00
40
40
7c
42
42
42
7c
00
00
00
ENDCHAR
STARTCHAR cyr-e-rev
ENCODING 253
SWIDTH 500 0
DWIDTH 8 0
BBX 8 16 0 -3
BITMAP
00
00
00
00
00
00
3c
42
02
1e
02
42
3c
00
00
00
ENDCHAR
STARTCHAR cyr-yu
ENCODING 254
SWIDTH 562 0
DWIDTH 9 0
BBX 9 16 0 -3
BITMAP
0000
0000
0000
0000
0000
0000
4e00
5100
5100
7100
5100
5100
4e00
0000
0000
0000
ENDCHAR
STARTCHAR cyr-ya
ENCODING 255
SWIDTH 500 0
DWIDTH 8 0
BBX 8 16 0 -3
BITMAP
00
00
00
00
00
00
3e
42
42
42
3e
22
42
00
00
00
ENDCHAR
ENDFONT
